Coordinates
version=1
nRows=65
nColumns=12
inDegrees=yes

Units are S.I. units (second, meters, Newtons, ...)
Angles are in degrees

endheader
time	SC_y	SC_z	SC_x	AC_y	AC_z	AC_x	GH_y	GH_z	GH_yy	EL_x	PS_y
       0.0              -27.25           18.2          30.76          51.02          -12.3          10.44          147.8          60.94          165.7          44.56          104.7
   0.01972              -27.25           18.2          30.76          51.02          -12.3          10.44          147.8          60.93          165.7          44.57          104.7
   0.03944              -27.25           18.2          30.76          51.02          -12.3          10.43          147.8          60.93          165.7          44.58          104.8
   0.05916              -27.25           18.2          30.77          51.02         -12.29          10.43          147.8          60.92          165.6          44.59          104.8
   0.07888              -27.25          18.19          30.77          51.03         -12.29          10.42          147.8          60.92          165.6           44.6          104.8
    0.0986              -27.25          18.19          30.78          51.03         -12.29          10.42          147.8          60.91          165.6          44.61          104.8
    0.1183              -27.25          18.19          30.78          51.03         -12.28          10.41          147.8          60.91          165.5          44.62          104.8
     0.138              -27.25          18.19          30.78          51.03         -12.28          10.41          147.8           60.9          165.5          44.63          104.8
    0.1578              -27.25          18.19          30.79          51.04         -12.28           10.4          147.8          60.89          165.4          44.64          104.8
    0.1775              -27.25          18.18           30.8          51.04         -12.27           10.4          147.8          60.89          165.4          44.66          104.8
    0.1972              -27.25          18.18           30.8          51.04         -12.27          10.39          147.8          60.88          165.3          44.67          104.8
    0.2169              -27.25          18.18          30.81          51.05         -12.26          10.39          147.7          60.87          165.3          44.69          104.9
    0.2366              -27.25          18.18          30.82          51.05         -12.26          10.38          147.7          60.86          165.2          44.71          104.9
    0.2564              -27.25          18.17          30.82          51.06         -12.25          10.37          147.7          60.85          165.1          44.72          104.9
    0.2761              -27.25          18.17          30.83          51.06         -12.24          10.36          147.7          60.84          165.0          44.74          104.9
    0.2958              -27.25          18.17          30.84          51.07         -12.24          10.35          147.7          60.83          165.0          44.77          104.9
    0.3155              -27.25          18.16          30.85          51.08         -12.23          10.34          147.7          60.82          164.9          44.79          105.0
    0.3352              -27.25          18.16          30.86          51.08         -12.22          10.33          147.7           60.8          164.8          44.82          105.0
     0.355              -27.25          18.16          30.87          51.09         -12.21          10.32          147.7          60.79          164.7          44.84          105.0
    0.3747              -27.25          18.15          30.88           51.1          -12.2          10.31          147.7          60.77          164.5          44.88          105.0
    0.3944              -27.25          18.15           30.9          51.11         -12.19          10.29          147.7          60.76          164.4          44.91          105.1
    0.4141              -27.25          18.14          30.91          51.12         -12.18          10.28          147.7          60.74          164.3          44.95          105.1
    0.4338              -27.25          18.13          30.93          51.13         -12.17          10.26          147.7          60.71          164.1          44.99          105.2
    0.4536              -27.25          18.13          30.95          51.14         -12.16          10.24          147.7          60.69          163.9          45.04          105.2
    0.4733              -27.25          18.12          30.97          51.15         -12.14          10.22          147.7          60.66          163.8          45.09          105.2
     0.493              -27.25          18.11          30.99          51.17         -12.12           10.2          147.6          60.64          163.5          45.14          105.3
    0.5127              -27.25           18.1          31.02          51.19          -12.1          10.17          147.6           60.6          163.3          45.21          105.4
    0.5324              -27.25          18.09          31.05           51.2         -12.08          10.14          147.6          60.57          163.0          45.28          105.4
    0.5522              -27.25          18.08          31.08          51.23         -12.06           10.1          147.6          60.52          162.7          45.36          105.5
    0.5719              -27.25          18.06          31.12          51.25         -12.03          10.07          147.6          60.48          162.4          45.45          105.6
    0.5916              -27.25          18.05          31.16          51.28          -12.0          10.02          147.6          60.42          162.0          45.56          105.7
    0.6113              -27.25          18.03          31.21          51.31         -11.96          9.972          147.5          60.36          161.5          45.68          105.8
     0.631              -27.25          18.01          31.26          51.35         -11.92          9.913          147.5          60.29          161.0          45.82          105.9
    0.6508              -27.26          17.98          31.33          51.39         -11.87          9.846          147.5          60.21          160.4          45.98          106.1
    0.6705              -27.26          17.95          31.41          51.44         -11.81          9.766          147.4          60.11          159.6          46.17          106.3
    0.6902              -27.26          17.92           31.5           51.5         -11.75          9.673          147.4          59.99          158.8          46.39          106.5
    0.7099              -27.26          17.88           31.6          51.57         -11.66          9.562          147.3          59.86          157.8          46.66          106.8
    0.7296              -27.26          17.83          31.73          51.65         -11.57          9.429          147.2          59.69          156.6          46.98          107.1
    0.7494              -27.26          17.77          31.89          51.75         -11.45          9.268          147.2           59.5          155.1          47.36          107.4
    0.7691              -27.27          17.69          32.08          51.87         -11.31          9.071          147.1          59.25          153.3          47.83          107.9
    0.7888              -27.27          17.61          32.31          52.03         -11.13          8.828          146.9          58.96          151.1          48.41          108.5
    0.8085              -27.27          17.49           32.6          52.22         -10.91          8.525          146.8          58.58          148.4          49.14          109.2
    0.8282              -27.28          17.35          32.97          52.46         -10.64          8.144          146.6          58.12          144.9          50.05          110.0
     0.848              -27.28          17.17          33.44          52.76         -10.29          7.659          146.3          57.52          140.5          51.21          111.2
    0.8677              -27.29          16.95          34.04          53.15         -9.837          7.039          146.0          56.76          134.9          52.69          112.6
    0.8874               -27.3          16.65           34.8          53.65          -9.26          6.242          145.6          55.78          127.7           54.6          114.4
    0.9071              -27.32          16.28          35.78          54.29         -8.523          5.225          145.0          54.53          118.5          57.03          116.8
    0.9268              -27.33           15.8          37.02          55.09         -7.596          3.946          144.3          52.96          106.9          60.09          119.7
    0.9466              -27.35          15.23          38.52          56.07         -6.467          2.387          143.5          51.04          92.73          63.82          123.3
    0.9663              -27.38          14.56          40.26           57.2         -5.158         0.5803          142.6          48.82          76.34          68.14          127.5
     0.986               -27.4          13.84          42.15          58.43         -3.741         -1.376          141.5          46.42           58.6          72.82          132.0
     1.006              -27.43          13.12          44.03          59.65         -2.324         -3.333          140.5          44.02          40.86          77.49          136.5
     1.025              -27.45          12.45          45.78          60.79         -1.015         -5.139          139.5           41.8          24.48          81.82          140.7
     1.045              -27.47          11.88          47.28          61.77         0.1146         -6.698          138.7          39.88          10.34          85.54          144.3
     1.065              -27.49          11.41          48.51          62.57          1.041         -7.977          138.0          38.31         -1.254           88.6          147.2
     1.085               -27.5          11.03          49.49          63.21          1.778         -8.994          137.5          37.06         -10.48          91.03          149.6
     1.104              -27.51          10.74          50.26           63.7          2.355         -9.791          137.1          36.08          -17.7          92.94          151.4
     1.124              -27.52          10.51          50.86          64.09          2.805         -10.41          136.8          35.32         -23.33          94.42          152.9
     1.144              -27.53          10.33          51.33           64.4          3.156          -10.9          136.5          34.72         -27.72          95.58          154.0
     1.163              -27.53          10.19          51.69          64.64          3.432         -11.28          136.3          34.25         -31.18           96.5          154.9
     1.183              -27.54          10.08          51.99          64.83          3.652         -11.58          136.1          33.88         -33.93          97.22          155.6
     1.203              -27.54           9.99          52.22          64.98          3.827         -11.82          136.0          33.58         -36.13           97.8          156.1
     1.223              -27.54          9.917          52.41           65.1           3.97         -12.02          135.9          33.34         -37.91          98.27          156.6
     1.242              -27.55          9.858          52.56           65.2          4.087         -12.18          135.8          33.14         -39.37          98.66          156.9
     1.262              -27.55          9.809          52.69          65.29          4.183         -12.31          135.7          32.98         -40.58          98.97          157.3
